# xmcd CD database file
#
# Track frame offsets:
#	150
#	17572
#	38860
#	58155
#	67470
#	86685
#	100637
#	117967
#
# Disc length: 1757 seconds
#
# Revision: 0
# Processed by: cddbd v1.5.2PL0 Copyright (c) Steve Scherf et al.
# Submitted via: CDex 1.51
#
DISCID=6a06db08
DTITLE=Duke Ellington - The Best of Duke Ellington
DYEAR=1996
DGENRE=Jazz
TTITLE0=Satin Doll
TTITLE1=Solitude
TTITLE2=Willow Weep for Me
TTITLE3=I'm Beginning to See the Light
TTITLE4=Take the "A" Train
TTITLE5=Mood Indigo
TTITLE6=I Got it Bad and that Ain't Good
TTITLE7=Don't Get Around Much Anymore
EXTD=YEAR: 1996
EXTT0=
EXTT1=
EXTT2=
EXTT3=
EXTT4=
EXTT5=
EXTT6=
EXTT7=
PLAYORDER=
